<svg width="7" height="12" viewBox="0 0 7 12" fill="none" xmlns="http://www.w3.org/2000/svg">
<path d="M4.16708 0.843262C2.90977 0.843262 2.32482 1.5469 2.32482 2.532L2.32482 4.91102H1.43582C1.10711 4.91102 0.842651 5.15344 0.842651 5.45475L0.842651 6.59941C0.842651 6.90072 1.10711 7.14315 1.43545 7.14315H2.32482L2.32482 11.1767C2.32482 11.478 2.58928 11.7201 2.91799 11.7201H4.16708C4.49579 11.7201 4.75987 11.4776 4.75987 11.1767V7.14315H5.90138C6.23009 7.14315 6.42433 6.89387 6.49418 6.59941L6.76611 5.45475C6.83596 5.16029 6.50165 4.91102 6.17294 4.91102H4.76025V4.17279C4.76025 3.3589 4.96009 3.07539 5.82481 3.07539H6.07769C6.4064 3.07539 6.67086 2.83297 6.67086 2.532V1.387C6.67086 1.08568 6.4064 0.843262 6.07769 0.843262H4.16708Z" fill="#FEF5E7"/>
</svg>
