<svg width="15" height="14" viewBox="0 0 15 14" fill="none" xmlns="http://www.w3.org/2000/svg">
<path d="M3.32288 0.0876465C1.82583 0.0876465 0.60083 1.31264 0.60083 2.80969L0.60083 11.2338C0.60083 12.7308 1.82583 13.9558 3.32288 13.9558H11.747C13.244 13.9558 14.469 12.7308 14.469 11.2338L14.469 2.80969C14.469 1.31264 13.244 0.0876465 11.747 0.0876465L3.32288 0.0876465ZM3.32288 1.34882L11.747 1.34882C12.5674 1.34882 13.2081 1.98925 13.2081 2.80969L13.2081 11.2338C13.2081 12.0542 12.5674 12.6949 11.747 12.6949H3.32288C2.50243 12.6949 1.86201 12.0542 1.86201 11.2338L1.86201 2.80969C1.86201 1.98925 2.50243 1.34882 3.32288 1.34882ZM11.649 2.68438C11.5054 2.68328 11.3658 2.73122 11.2531 2.82028C11.122 2.92397 11.0374 3.0755 11.018 3.24153C10.9986 3.40757 11.046 3.57452 11.1496 3.70565C11.2533 3.83676 11.4049 3.92131 11.5709 3.94069C11.737 3.96008 11.9039 3.91272 12.035 3.80903C12.1661 3.70533 12.2507 3.55379 12.2701 3.38775C12.2894 3.22172 12.2421 3.05478 12.1384 2.92366C12.0799 2.84971 12.0056 2.78983 11.9209 2.74842C11.8362 2.70701 11.7433 2.68513 11.649 2.68438ZM7.50327 3.20706C5.36895 3.20706 3.62544 4.95082 3.62544 7.08514C3.62544 9.21946 5.36895 10.963 7.50327 10.963C9.63759 10.963 11.3811 9.21946 11.3811 7.08514C11.3811 4.95082 9.63759 3.20706 7.50327 3.20706ZM7.50327 4.46723C7.84735 4.46604 8.18825 4.53296 8.50635 4.66411C8.82445 4.79527 9.11345 4.98807 9.3567 5.23142C9.59995 5.47476 9.79264 5.76384 9.92368 6.08199C10.0547 6.40014 10.1215 6.74107 10.1202 7.08514C10.1215 7.42916 10.0547 7.77004 9.92363 8.08813C9.79257 8.40621 9.59986 8.69521 9.3566 8.93847C9.11334 9.18174 8.82434 9.37445 8.50625 9.5055C8.18817 9.63655 7.84729 9.70335 7.50327 9.70205C7.15925 9.70335 6.81837 9.63655 6.50029 9.5055C6.1822 9.37445 5.8932 9.18174 5.64994 8.93847C5.40668 8.69521 5.21397 8.40621 5.08292 8.08813C4.95187 7.77004 4.88506 7.42916 4.88636 7.08514C4.88505 6.74107 4.95183 6.40014 5.08286 6.08199C5.2139 5.76384 5.40659 5.47476 5.64984 5.23142C5.89309 4.98807 6.18209 4.79527 6.50019 4.66411C6.81829 4.53296 7.1592 4.46604 7.50327 4.46723Z" fill="#FEF5E7"/>
</svg>
