<svg version="1.2" xmlns="http://www.w3.org/2000/svg" viewBox="0 0 741 111" width="740" height="111">
	<title>Logo sanram-ai</title>
	<style>
		.s0 { fill: #040404 } 
		.s1 { fill: #030303 } 
		.s2 { fill: #e90405 } 
		.s3 { fill: #e90506 } 
		.s4 { fill: #e90607 } 
	</style>
	<g id="Capa 1">
		<g id="&lt;Group&gt;">
			<path id="&lt;Path&gt;" class="s0" d="m643.7 32.6c-3.4 24.9-6.6 48.9-9.9 73.1-3.3 0-6.5 0-10.1 0q7.3-51 14.6-102.1 0.4-0.2 0.8-0.5c0.7 0.8 1.6 1.6 2.1 2.5 12.9 26 25.8 52.1 38.7 78.1 0.6 1 1.1 2 1.8 3.4 2.8-5.6 5.5-11 8.2-16.3 10.6-21.8 21.3-43.5 32-65.2 0.4-0.9 1.4-1.5 2.1-2.2 0.4 0.9 1 1.8 1.1 2.8q5.7 39.1 11.3 78.2c1 7.1 2 14.2 3 21.4-3.6 0-6.8 0-10.2 0-3.3-23.9-6.6-47.6-10-72.1-0.7 1.1-1.2 1.7-1.6 2.3-11 22.4-22 44.8-33.1 67.1-0.6 1.1-1.9 2.6-2.8 2.6-0.9 0.1-2.3-1.4-2.8-2.6-11.2-22.3-22.2-44.6-33.3-66.9-0.5-0.9-0.9-1.8-1.9-3.6z"/>
			<path id="&lt;Compound Path&gt;" fill-rule="evenodd" class="s1" d="m445.6 106c-4.3 0-7.9 0.1-11.5-0.1-1.1-0.1-2.3-1.2-3.1-2.2-10.8-13.8-21.7-27.7-32.3-41.7-2.2-2.9-4.4-4.3-8.3-3.2 0 15.5 0 31.2 0 47-3.6 0-6.9 0-10.3 0 0-34 0-68 0-102 0.1-0.1 0.3-0.3 0.4-0.3 13.7 0.3 27.4-0.2 41 1.2 14.5 1.5 22.6 12.2 22.5 27.1-0.1 13.5-9.1 23.5-23 25.6-3.8 0.6-7.6 0.9-11.9 1.3 12.1 15.7 24.1 31.3 36.5 47.3zm-55.2-57.6c3.2 0 6.1 0.1 8.9 0 7-0.3 14-0.2 20.9-1.3 7.9-1.2 12.9-7.9 13.1-16 0.3-7.3-4.5-14.4-11.4-16.1-10.4-2.6-21-1.1-31.5-1.5 0 11.8 0 23.1 0 34.9z"/>
			<path id="&lt;Path&gt;" class="s2" d="m256.4 105.8c-4 0-7.4 0-11 0 0-34.2 0-68.2 0-102.2q0.4-0.4 0.7-0.7c1.3 1 2.7 1.8 3.8 3 12.2 14 24.4 28 36.6 42q13.5 15.6 26.9 31.2c0.6 0.6 0.8 1.5 1.2 2.3q0.5-0.4 1.1-0.8c0-25.6 0-51.2 0-77 3.5 0 6.7 0 10.2 0 0 34 0 68 0 103-1.6-1-3-1.5-3.9-2.5-21.6-24.7-43.2-49.5-64.8-74.2-0.1-0.2-0.3-0.3-0.8-0.6 0 25.5 0 50.9 0 76.5z"/>
			<path id="&lt;Compound Path&gt;" fill-rule="evenodd" class="s3" d="m201 105.9c-3.5 0-6.7 0.2-9.8-0.1-0.9 0-1.9-1.1-2.4-2-4.7-9.7-9.4-19.3-13.9-29.1-0.9-1.9-1.9-2.5-3.8-2.4q-19.4 0-38.8-0.1c-1.9 0-2.8 0.6-3.6 2.4-4.5 9.9-9.2 19.7-13.9 29.4-0.4 0.8-1.4 1.8-2.2 1.9-3.3 0.2-6.7 0-10.4 0 9.6-20.3 19-40.2 28.4-60.1 6.2-13.1 12.3-26.2 18.6-39.2 0.6-1.2 1.9-2.2 2.8-3.2 0.9 1 2.1 1.9 2.7 3.1 15.3 32.6 30.5 65.4 45.8 98.1 0.1 0.3 0.2 0.6 0.5 1.3zm-66.4-43.8c11.9 0 23 0 34.6 0-5.8-12.3-11.4-24.2-17.2-36.6-5.9 12.4-11.6 24.3-17.4 36.6z"/>
			<path id="&lt;Compound Path&gt;" fill-rule="evenodd" class="s1" d="m485.3 106c5.4-11.7 10.7-22.9 16-34.2 10.4-21.8 20.7-43.7 31.1-65.6 0.5-1.1 1.8-1.9 2.7-2.8 0.9 0.9 2 1.7 2.5 2.8 15.2 32.4 30.3 64.9 45.5 97.3 0.3 0.7 0.5 1.4 1 2.5-3.5 0-6.7 0.1-10-0.1-0.8-0.1-1.8-1.3-2.2-2.1-4.6-9.5-9.2-19.1-13.6-28.6-1.1-2.2-2.3-3.1-4.8-3.1q-18.8 0.3-37.6 0.1c-2.4-0.1-3.5 0.8-4.4 2.8-4.5 9.6-9.1 19.2-13.5 28.7-0.8 1.7-1.7 2.4-3.6 2.3-2.9-0.2-5.8 0-9.1 0zm49.7-80.5c-6 12.6-11.6 24.4-17.3 36.6 11.6 0 22.9 0 34.5 0-5.7-12.2-11.3-24.1-17.2-36.6z"/>
			<path id="&lt;Path&gt;" class="s4" d="m60.2 17.3c-3.4 2.6-6.2 4.7-8.9 6.7-2.6-2.8-4.9-5.4-7.4-7.8-4.4-4.2-9.7-5.6-15.5-4.1-9.6 2.6-13.2 13.1-7 21.2 2.9 3.9 7 6.9 10.7 10.2 7.1 6 14.8 11.4 21.1 18.1 9.9 10.2 10.8 24.1 3.5 34.3-11.8 16.3-35.2 17.2-48.3 1.6-2.7-3.2-4.9-6.8-7.5-10.5 3.3-2 6.1-3.7 8.4-5.1 3.8 4.3 7 8.9 11.1 12.4 9.8 8.3 24.9 3.7 28.9-8.5 1.7-5.2 0.9-10.4-2.7-14.3-5-5.6-10.7-10.7-16.3-15.8-4.6-4.1-9.7-7.6-14.2-11.7-14.5-13.2-9.9-35.9 8.4-41.9 8.2-2.7 16.4-1.7 23.3 3.5 4.5 3.2 8.1 7.6 12.4 11.7z"/>
		</g>
	</g>
</svg>