<svg width="11" height="12" viewBox="0 0 11 12" fill="none" xmlns="http://www.w3.org/2000/svg">
<path d="M7.45169 0.348877L5.46981 0.349235L5.46981 8.16861C5.47046 8.49664 5.36895 8.81743 5.1782 9.09012C4.98745 9.36281 4.71609 9.57506 4.3987 9.69983C4.08206 9.82605 3.73327 9.85929 3.39679 9.79532C3.0603 9.73136 2.75137 9.57308 2.50935 9.34066C2.26608 9.10918 2.10039 8.81373 2.0334 8.49193C1.96642 8.17014 2.00116 7.83656 2.13321 7.53371C2.26384 7.23048 2.48595 6.97128 2.77125 6.78915C3.05655 6.60701 3.39211 6.51018 3.7352 6.51099H4.37622V4.61666H3.73557C3.00068 4.61742 2.28247 4.82612 1.67149 5.21644C1.0605 5.60677 0.584092 6.16126 0.302312 6.81C0.0217589 7.45916 -0.0514601 8.17319 0.0918839 8.86207C0.235228 9.55095 0.588719 10.1839 1.1078 10.681C1.628 11.1771 2.29018 11.5148 3.01089 11.6518C3.73159 11.7887 4.47858 11.7187 5.15773 11.4506C5.83631 11.1811 6.41627 10.7257 6.82449 10.1417C7.23272 9.55773 7.45096 8.87131 7.45169 8.16897L7.45169 3.83279C7.99118 4.14003 8.62808 4.36564 9.41221 4.36564H10.4028V2.47095H9.41221C8.29764 2.47095 7.99568 2.03766 7.73118 1.48798C7.46668 0.93866 7.45169 0.348877 7.45169 0.348877Z" fill="#FEF5E7"/>
</svg>
