<svg width="13" height="11" viewBox="0 0 13 11" fill="none" xmlns="http://www.w3.org/2000/svg">
<path d="M8.63737 0.832031C8.23689 0.832441 7.84155 0.917886 7.48022 1.08213C7.11888 1.24638 6.80067 1.48528 6.54878 1.7814C6.2969 2.07753 6.11771 2.4234 6.0243 2.79379C5.93088 3.16417 5.92558 3.54972 6.00881 3.9223C5.62081 3.91697 4.5853 3.84558 3.27083 3.26845C1.60832 2.53859 1.2405 1.83927 1.2405 1.83927C1.2405 1.83927 0.721432 1.15274 0.473102 2.59932C0.338295 3.38494 0.870804 4.13362 1.24722 4.552C0.833834 4.44297 0.65907 4.32221 0.65907 4.32221C0.65907 4.32221 -0.131478 3.9358 0.340162 5.33123C0.644132 6.22979 1.75172 6.67374 2.21851 6.82469C1.86151 6.83392 1.68861 6.78207 1.68861 6.78207C1.68861 6.78207 0.846157 6.65776 1.71961 7.79215C2.23494 8.46163 3.24992 8.58913 3.78018 8.60831C2.29842 9.64183 1.95487 9.40494 1.34244 9.35557C0.950344 9.32361 0.625461 9.72849 1.39584 10.1515C3.07889 11.0756 7.07494 11.1133 9.3129 8.42256C11.2069 6.1449 11.3795 4.09029 11.3694 3.44318C11.6192 3.31177 11.8425 3.1484 11.9456 2.9488C12.2488 2.36136 11.8294 2.43097 11.8294 2.43097L11.3541 2.45725C11.6323 2.25623 11.8925 2.00975 11.9631 1.74586C12.1327 1.11154 11.7372 1.26213 11.7372 1.26213L10.534 1.57326C10.0301 1.09833 9.34939 0.831927 8.63998 0.832031H8.63737Z" fill="#FEF5E7"/>
</svg>
