<svg width="23" height="23" viewBox="0 0 23 23" fill="none" xmlns="http://www.w3.org/2000/svg">
<path d="M11.5 0C5.15895 0 -4.78586e-05 5.159 -4.78586e-05 11.5C-4.78586e-05 13.48 0.511452 15.427 1.48145 17.145L0.0184521 22.365C-0.0295479 22.5365 0.0169522 22.7205 0.140952 22.848C0.236452 22.9465 0.366452 23 0.499952 23C0.539952 23 0.580452 22.995 0.619952 22.9855L6.06795 21.636C7.73145 22.529 9.60495 23 11.5 23C17.841 23 23 17.841 23 11.5C23 5.159 17.841 0 11.5 0ZM17.285 15.558C17.039 16.239 15.859 16.8605 15.292 16.944C14.783 17.0185 14.139 17.0505 13.432 16.8285C13.0035 16.6935 12.4535 16.5145 11.749 16.214C8.78745 14.951 6.85345 12.0065 6.70545 11.812C6.55795 11.6175 5.49995 10.2315 5.49995 8.797C5.49995 7.3625 6.26245 6.657 6.53345 6.365C6.80445 6.073 7.12395 6 7.32095 6C7.51795 6 7.71445 6.0025 7.88695 6.0105C8.06845 6.0195 8.31195 5.942 8.55145 6.511C8.79745 7.095 9.38795 8.5295 9.46095 8.676C9.53495 8.822 9.58395 8.9925 9.48595 9.187C9.38795 9.3815 9.33895 9.503 9.19095 9.6735C9.04295 9.844 8.88095 10.0535 8.74795 10.1845C8.59995 10.33 8.44645 10.4875 8.61845 10.7795C8.79045 11.0715 9.38295 12.026 10.261 12.799C11.3885 13.792 12.34 14.1 12.635 14.246C12.93 14.392 13.1025 14.3675 13.2745 14.173C13.4465 13.978 14.0125 13.3215 14.209 13.03C14.4055 12.7385 14.6025 12.7865 14.8735 12.884C15.1445 12.981 16.596 13.686 16.891 13.832C17.186 13.978 17.383 14.051 17.457 14.1725C17.531 14.2935 17.531 14.8775 17.285 15.558Z" fill="white"/>
</svg>
