<svg width="10" height="10" viewBox="0 0 10 10" fill="none" xmlns="http://www.w3.org/2000/svg">
<g clip-path="url(#clip0_15_440)">
<path d="M9.09954 3.07831C9.04882 2.89359 8.95 2.72635 8.8136 2.59438C8.67335 2.45834 8.50145 2.36103 8.31413 2.31164C7.61309 2.12301 4.80442 2.12301 4.80442 2.12301C3.63352 2.10942 2.46291 2.16923 1.29919 2.30211C1.11187 2.35516 0.940294 2.45464 0.799725 2.59171C0.661606 2.72736 0.561563 2.89465 0.509302 3.07793C0.383761 3.7683 0.322764 4.46929 0.327135 5.17144C0.322655 5.87296 0.383502 6.57372 0.509302 7.26495C0.560443 7.44747 0.660113 7.61399 0.798605 7.7485C0.937097 7.88301 1.10956 7.98018 1.29919 8.03163C2.00957 8.21987 4.80442 8.21987 4.80442 8.21987C5.97681 8.23348 7.14892 8.17367 8.31413 8.04077C8.50145 7.99137 8.67335 7.89406 8.8136 7.75803C8.95172 7.62352 9.0499 7.45623 9.09917 7.27409C9.22799 6.58399 9.29063 5.88271 9.28619 5.1802C9.29588 4.47472 9.23333 3.77014 9.09954 3.07793V3.07831ZM3.9115 6.47617L3.9115 3.86709L6.24832 5.17182L3.9115 6.47617Z" fill="white"/>
</g>
<defs>
<clipPath id="clip0_15_440">
<rect width="8.95906" height="9.14528" fill="white" transform="translate(0.327148 0.598572)"/>
</clipPath>
</defs>
</svg>
